<svg viewBox="0 0 512 512" xmlns="http://www.w3.org/2000/svg"><path d="M383.5 353.5c-25.1 14.3-50.3 28.5-75.6 42.6-12.8 7.1-25.6 14.1-38.4 21.3-5.3 3-10.9 7.8-17.1 8.9-6.4 1.1-12.3-2.1-18.1-4.3-15.1-5.9-30.5-11.6-45.6-17.4-9.1-3.5-5.5-14.3-.8-19.5 6.6-7.3 18.3-.8 25.2 2.4 10.5 4.9 21.6 7.8 32.6 11.3 24.5 7.9 50.1-31.9 27.1-47.6-8.5-5.7-20.7-8.6-30.3-12.4-21-8.3-42.1-16.5-62.9-25.3-13.8-5.8-27.7-13.4-42.7-15.3-13.9-1.7-30 .7-43.4 4.6-7.4 2.1-15.8 5.8-21.7 10.8-4 3.4-7.4 8.6-9 13.6v112c0 0 .7 6.4 7.1 4.9 18.9-4.4 41.4-3.1 60.2 1 17.7 3.9 33.8 13.5 50.5 20.2 18.5 7.4 37.5 13.3 56.2 19.9 30.9 10.9 52.9-15.4 77.4-29.2 29.9-16.8 59.7-33.8 89.5-50.6 5-2.8 9.9-5.6 14.9-8.4 7.7-4.4 15.1-20.5 14.3-28.8C430.6 342.4 400.3 343.9 383.5 353.5zM43.1 326.9H18c-6.6 0-12 5.4-12 12v93.3c0 6.6 5.4 12 12 12h25.1c6.6 0 12-5.4 12-12v-93.3C55.1 332.3 49.7 326.9 43.1 326.9zM37 354.4c-5 0-9-4-9-9 0-5 4-9 9-9 5 0 9 4 9 9C46 350.3 41.9 354.4 37 354.4zM86.5 262.2H506V279.3H86.5zM122.7 253c.3-2.7.8-6.9 1.6-11.3.2-.9.3-1.8.5-2.8.2-1 .4-2 .7-3 .5-2.1 1-4.4 1.5-6.8.3-1.2.6-2.5.9-3.7.4-1.3.7-2.6 1.1-3.9.8-2.7 1.6-5.5 2.4-8.4 2-5.8 4-12.1 6.7-18.5.7-1.6 1.3-3.3 2-4.9.8-1.6 1.5-3.3 2.3-4.9.8-1.7 1.6-3.3 2.3-5 .8-1.7 1.7-3.3 2.6-5 .9-1.7 1.8-3.4 2.7-5.1.9-1.7 2-3.3 2.9-5 1-1.7 2-3.3 3-5 1.1-1.7 2.2-3.3 3.3-4.9 1.1-1.6 2.2-3.3 3.3-4.9 1.2-1.6 2.4-3.2 3.6-4.8 2.3-3.2 4.9-6.3 7.4-9.3 1.2-1.6 2.6-3 3.9-4.5 1.3-1.5 2.7-2.9 4-4.4 1.4-1.4 2.8-2.8 4.1-4.2 1.4-1.4 2.7-2.8 4.2-4.1 1.4-1.3 2.8-2.6 4.2-4 1.4-1.3 2.9-2.5 4.3-3.8 2.8-2.5 5.8-4.8 8.6-7.1 1.4-1.2 2.9-2.2 4.3-3.3 1.5-1.1 2.9-2.2 4.3-3.1 2.9-2 5.7-4 8.5-5.7 5.6-3.6 11.1-6.7 16.2-9.5 5.1-2.7 9.9-5 14.2-6.9 4.3-1.9 8.1-3.4 11.2-4.6 6.3-2.4 10-3.3 10-3.3s-3.6 1.3-9.6 4.3c-6 2.9-14.4 7.5-23.9 13.9-4.7 3.2-9.8 6.8-14.9 10.8-2.6 2-5.1 4.2-7.8 6.4-1.3 1.1-2.6 2.3-3.9 3.5-1.3 1.2-2.6 2.3-3.9 3.6-2.5 2.5-5.2 5-7.7 7.7-1.2 1.3-2.6 2.6-3.8 4-1.2 1.4-2.4 2.8-3.7 4.2-1.3 1.4-2.4 2.8-3.6 4.3-1.2 1.5-2.4 2.9-3.5 4.4-1.1 1.5-2.2 3-3.4 4.5-1.1 1.5-2.3 3-3.3 4.6-2.1 3.2-4.3 6.2-6.1 9.5-1 1.6-1.9 3.2-2.9 4.8-.9 1.6-1.8 3.3-2.7 4.9-.9 1.6-1.8 3.2-2.6 4.9-.8 1.7-1.6 3.3-2.3 4.9-.8 1.6-1.6 3.2-2.3 4.9-.7 1.6-1.4 3.3-2 4.9-.7 1.6-1.4 3.2-2 4.8-.6 1.6-1.1 3.2-1.7 4.8-.6 1.6-1.1 3.2-1.7 4.7-.5 1.6-.9 3.1-1.4 4.7-2 6.1-3.2 12.1-4.5 17.5-.5 2.8-1 5.4-1.4 7.9-.2 1.3-.5 2.5-.7 3.7-.2 1.2-.3 2.4-.5 3.5-.3 2.3-.6 4.4-.8 6.3-.1 1-.2 1.9-.4 2.8-.1.9-.1 1.8-.2 2.6-.3 3.5-.5 6.1-.6 7.9h344c0-.8 0-1.6 0-2.4 0-107.6-83.1-195.3-187-199V40.4c10.2-1 17.6-4.2 17.6-7.9 0-4.5-11-8.2-24.5-8.2s-24.5 3.7-24.5 8.2c0 3.7 7.4 6.9 17.6 7.9v11.2c-103.9 3.7-187 91.4-187 199 0 .8 0 1.6 0 2.4H122.7zM374.4 89.7c1.5.5 3.3 1.3 5.3 2.2 2 .9 4.3 2 6.7 3.3 2.4 1.3 5 2.8 7.6 4.5 1.3.8 2.7 1.8 4 2.7.7.5 1.3 1 2 1.5.7.5 1.4 1 2 1.5 1.3 1.1 2.7 2.2 4.1 3.3.7.6 1.4 1.2 2 1.8.7.6 1.3 1.2 2 1.9.7.6 1.3 1.3 2 1.9.6.7 1.3 1.3 1.9 2 .6.7 1.2 1.4 1.9 2.1.6.7 1.3 1.4 1.8 2.1 1.2 1.5 2.4 2.9 3.5 4.4.6.8 1.1 1.5 1.7 2.3.5.8 1 1.5 1.6 2.3.5.8 1 1.5 1.5 2.3.5.8.9 1.6 1.4 2.4.5.8 1 1.6 1.4 2.4.4.8.8 1.6 1.3 2.4.4.8.9 1.6 1.2 2.4.4.8.7 1.6 1.1 2.4.4.8.7 1.6 1.1 2.3.3.8.6 1.6.9 2.3 1.3 3 2.2 6 3.2 8.7.4 1.4.8 2.7 1.1 4 .2.6.4 1.2.5 1.8.1.6.3 1.2.4 1.8.3 1.1.5 2.2.7 3.2.1.5.2 1 .3 1.4.1.5.2.9.2 1.3.6 3.3.9 6.6.9 6.6l-11.1-.2c0 0-.1-1.7-.4-4.8 0-.4-.1-.8-.1-1.2-.1-.4-.1-.9-.2-1.3-.1-.9-.2-1.9-.4-3-.1-.5-.1-1.1-.2-1.6-.1-.6-.2-1.1-.3-1.7-.2-1.2-.4-2.4-.7-3.7-.6-2.5-1.2-5.4-2.1-8.2-.2-.7-.4-1.5-.7-2.2-.3-.7-.5-1.5-.8-2.2-.3-.7-.5-1.5-.8-2.3-.3-.8-.6-1.5-.9-2.3-.3-.8-.6-1.5-1-2.3-.3-.8-.7-1.5-1.1-2.3-.4-.8-.7-1.5-1.1-2.3-.4-.8-.8-1.5-1.2-2.3-.4-.8-.8-1.5-1.3-2.3-.5-.7-.9-1.5-1.4-2.3-.9-1.5-1.9-3-2.9-4.5-.5-.7-1-1.4-1.5-2.2-.5-.7-1.1-1.4-1.6-2.1-.6-.7-1.1-1.4-1.7-2.1-.6-.7-1.1-1.4-1.7-2-.6-.7-1.2-1.3-1.7-2-.6-.7-1.2-1.3-1.8-1.9-1.2-1.3-2.4-2.4-3.6-3.6-.6-.6-1.2-1.1-1.8-1.7-.6-.5-1.2-1.1-1.8-1.6-1.2-1-2.4-2.1-3.6-3-2.4-1.9-4.8-3.6-7-5.1-4.5-3-8.4-5.1-11.2-6.5-2.8-1.4-4.5-2-4.5-2S371.5 88.6 374.4 89.7z" fill-rule="evenodd" clip-rule="evenodd"/></svg>