<svg xmlns="http://www.w3.org/2000/svg" width="512" height="512"><style/><g id="solid"><path id="Layer" fill-rule="evenodd" d="M427.9 336.77L464.92 358.14L448.92 385.86L411.9 364.48L421.19 399.14L390.28 407.43L372.71 341.86L320 311.43L272 339.14L272 400L320 448L297.37 470.63L272 445.25L272 488L240 488L240 445.25L214.63 470.63L192 448L240 400L240 339.14L192 311.43L139.29 341.86L121.72 407.43L90.81 399.14L100.1 364.48L63.08 385.86L47.08 358.14L84.1 336.77L49.44 327.48L57.72 296.57L123.29 314.14L176 283.71L176 228.29L123.29 197.86L57.72 215.43L49.44 184.52L84.1 175.23L47.08 153.86L63.08 126.14L100.1 147.52L90.81 112.86L121.72 104.57L139.29 170.14L192 200.57L240 172.86L240 112L192 64L214.63 41.37L240 66.75L240 24L272 24L272 66.75L297.37 41.37L320 64L272 112L272 172.86L320 200.57L372.71 170.14L390.28 104.57L421.19 112.86L411.9 147.52L448.92 126.14L464.92 153.86L427.9 175.23L462.56 184.52L454.28 215.43L388.71 197.86L336 228.29L336 283.71L388.71 314.14L454.28 296.57L462.56 327.48L427.9 336.77ZM304 228.29L256 200.57L208 228.29L208 283.71L256 311.43L304 283.71L304 228.29Z" fill="#000"/></g></svg>